<?xml version="1.0" standalone="no"?>
<!DOCTYPE svg PUBLIC "-//W3C//DTD SVG 20010904//EN"
 "http://www.w3.org/TR/2001/REC-SVG-20010904/DTD/svg10.dtd">
<svg version="1.0" xmlns="http://www.w3.org/2000/svg"
 width="1239.000000pt" height="1239.000000pt" viewBox="0 0 1239.000000 1239.000000"
 preserveAspectRatio="xMidYMid meet">
<metadata>
Created by potrace 1.14, written by Peter Selinger 2001-2017
</metadata>
<g transform="translate(0.000000,1239.000000) scale(0.100000,-0.100000)"
fill="#000000" stroke="none">
<path d="M190 7615 l0 -4775 6000 0 6000 0 0 4775 0 4775 -6000 0 -6000 0 0
-4775z m10170 3850 l0 -415 418 -2 417 -3 3 -417 2 -418 -417 -2 -418 -3 -3
-417 -2 -418 -415 0 -415 0 0 420 0 420 -420 0 -420 0 2 418 3 417 418 3 417
2 0 415 0 415 415 0 415 0 0 -415z m-5702 -2065 c534 -56 1023 -370 1294 -830
28 -47 51 -86 53 -88 1 -1 25 36 54 83 76 129 154 229 266 341 252 253 562
415 920 480 133 24 392 24 525 0 873 -155 1485 -970 1447 -1926 -8 -185 -27
-318 -71 -494 -235 -927 -1168 -2048 -2586 -3107 -243 -182 -538 -389 -553
-389 -15 0 -321 215 -545 382 -460 343 -826 656 -1196 1018 -792 777 -1283
1534 -1419 2185 -40 189 -50 296 -50 490 1 327 63 603 198 880 318 652 990
1046 1663 975z"/>
<path d="M5083 7218 c-95 -1002 -171 -1823 -170 -1824 1 0 274 196 607 436
333 241 607 433 609 428 6 -16 -204 -1608 -212 -1608 -5 0 -87 28 -183 61 -96
34 -177 60 -180 57 -6 -7 437 -1038 447 -1038 8 0 743 816 747 830 2 6 -65 10
-183 10 l-187 0 6 25 c28 110 636 2879 634 2884 -2 4 -329 -228 -726 -517
-398 -288 -725 -522 -728 -520 -2 3 83 409 189 904 l193 899 -45 85 c-116 223
-193 330 -330 467 -82 82 -198 173 -281 222 l-35 20 -172 -1821z"/>
<path d="M190 1290 l0 -1290 6000 0 6000 0 0 1290 0 1290 -6000 0 -6000 0 0
-1290z m3915 869 c209 -22 314 -69 432 -192 177 -184 242 -365 243 -672 0
-225 -22 -332 -102 -487 -80 -155 -211 -279 -388 -366 l-95 -47 -472 -3 -473
-3 0 897 0 897 383 -7 c210 -4 423 -11 472 -17z m2888 -861 c190 -486 349
-891 353 -901 6 -16 -6 -17 -187 -15 l-193 3 -91 230 -91 230 -328 0 -329 0
-90 -233 -90 -232 -170 0 c-157 0 -169 1 -162 18 3 9 34 91 67 182 33 91 155
404 270 695 115 292 241 612 280 712 l71 182 151 4 c83 1 160 4 172 5 19 2 55
-84 367 -880z m2527 717 l0 -165 -470 0 -470 0 0 -190 0 -190 435 0 435 0 0
-150 0 -150 -435 0 -435 0 0 -230 0 -230 470 0 470 0 0 -160 0 -160 -645 0
-645 0 0 498 c0 273 3 676 7 895 l6 397 639 0 638 0 0 -165z"/>
<path d="M3617 1873 c-4 -3 -7 -271 -7 -595 l0 -588 233 0 c299 0 314 4 412
104 107 109 164 234 186 408 18 138 -14 299 -89 441 -74 143 -170 213 -312
228 -92 10 -414 11 -423 2z"/>
<path d="M6445 1698 c-41 -110 -182 -500 -189 -525 l-7 -23 215 0 c119 0 216
3 216 6 0 10 -201 614 -204 614 -2 0 -16 -33 -31 -72z"/>
</g>
</svg>
