<?xml version="1.0" encoding="UTF-8"?>
<svg version="1.0" viewBox="0 0 930 960" xmlns="http://www.w3.org/2000/svg">
<g transform="matrix(.99601 0 0 .99866 436.08 -32.604)">
<path d="m-437.82 32.648v961.29h933.72l2e-5 -961.29h-933.73z" fill="#FF0000"/>
<path transform="translate(-285.21 33.648)" d="m181.75 230.38c-78.861 0.72192-149.13 78.563-127.97 181.56 16.133 78.517 99.968 180.62 246.22 279.59 146.25-98.972 230.09-201.08 246.22-279.59 21.163-103-49.108-180.84-127.97-181.56-40.53-0.61982-91.229 20.751-118.25 72.375-27.021-51.624-77.72-72.995-118.25-72.375z" fill="#fff"/>
<path transform="translate(-285.21 33.648)" d="m241.5 258.88-26.844 283.19 95.344-68.562-16.438 126.44-29.625-10.375 35.344 82.156 59.281-65.719h-29.625l50.344-227.16-114.28 82.5 30.281-140.69-6.3438-12.125c-11.952-22.834-28.982-39.04-47.438-49.656z" fill="#FF0000"/>
<path transform="translate(-285.21 33.648)" d="m574 38.344v65h-65v65h65v65h65v-65h65v-65h-65v-65h-65z" fill="#fff"/>
<g>
<path d="m-199.84 825.18v69.28 69.28h35.674c-2e-5 0 24.91 0.45581 35.611 0 25.94-8.5947 43.419-28.119 47.282-54.385 2.9954-30.977-1.6461-50.143-16.629-66.683-13.136-14.501-24.599-17.468-67.676-17.492h-34.262z" fill="#fff"/>
<path d="m64.744 825.18-26.826 0.06258c-16.851 44.986-37.946 93.651-53.997 138.94h26.324l13.962-35.986h51.079l14.15 35.986c9.5814 0.45581 27.664-3e-5 29.995 0l-54.687-139z" fill="#fff"/>
<path d="m188.43 825.18-0.43925 69.28-0.50201 69.28h50.326 50.294v-12.423-12.454h-36.489-36.521v-17.743-17.742h33.822 33.854v-11.578-11.547h-33.854-33.822v-15.083-15.114h36.521 36.489v-12.423-12.454h-49.792-49.887z" fill="#fff"/>
<path d="m-171.35 848.3h24.943c9.3361 0.50433 12.323-0.56644 21.9 4.9754 13.761 9.4549 18.201 34.385 18.072 40.429-0.28584 13.357-4.3282 31.341-19.798 43.183-4.8956 3.2986-8.162 3.755-25.383 3.755h-19.735v-46.187-46.156z" fill="#FF0000"/>
<path d="m51.316 856.59c0.58446 0.0794 16.232 47.911 15.97 48.096-9.7488 0.41268-25.162 0.04953-33.854 0-0.042942-0.06451 17.191-48.19 17.884-48.096z" fill="#FF0000"/>
</g>
</g>
<rect y="740" width="930" height="20" fill="#fff" stroke-width="0"/>
</svg>
